# xmcd
#
# Track frame offsets:
#	150
#	14424
#	30877
#	46070
#	64027
#
# Disc length: 1080 seconds
#
# Revision: 0
# Processed by: cddbd v1.5.1PL2 Copyright (c) Steve Scherf et al.
# Submitted via: audiograbber 1.83.01
#
DISCID=2f043605
DTITLE=тяиамтажуккос (BY G.Z.) - LIVE and 5
DYEAR=2006
DGENRE=каийа
TTITLE0=жтоу соу латиа лоу
TTITLE1=вяомиа се пеяилема
TTITLE2=дем то бафы йаты
TTITLE3=ема лецако еуваяисты
TTITLE4=патеяа то тяацоуди ауто соу то ажиеяымы
EXTD=
EXTT0=
EXTT1=
EXTT2=
EXTT3=
EXTT4=
PLAYORDER=
